<svg version="1.1" id="Layer_1" xmlns="http://www.w3.org/2000/svg" x="0" y="0" viewBox="0 0 14 14" style="enable-background:new 0 0 14 14" xml:space="preserve"><path d="M.9 8.5c0 .2-.1.4-.1.6C.8 11.8 3.6 14 7 14c3.4 0 6.2-2.2 6.2-4.8 0-.2 0-.4-.1-.6.6-.4.9-.9.9-1.6 0-1-.7-1.8-1.6-1.8-.4 0-.8.2-1.1.5-1-.8-2.4-1.3-3.9-1.3l.8-3.2 1.8.7c0 .9.7 1.7 1.6 1.7.9 0 1.6-.8 1.6-1.8S12.4 0 11.5 0c-.6 0-1.2.4-1.4.9L7.6 0 6.5 4.4c-1.4.1-2.8.6-3.8 1.3-.3-.3-.6-.5-1.1-.5C.7 5.2 0 6 0 7c0 .7.3 1.2.9 1.5zM9.5 7c.7 0 1.2.6 1.2 1.3s-.6 1.3-1.2 1.3c-.7 0-1.2-.6-1.2-1.3S8.8 7 9.5 7zm-.2 3.9.4.8c-.8.3-1.7.5-2.7.5-1 0-1.9-.2-2.7-.6l.4-.8c1.3.7 3.3.7 4.6.1zM4.5 7c.7 0 1.2.6 1.2 1.3s-.5 1.3-1.2 1.3S3.3 9 3.3 8.3 3.8 7 4.5 7z" style="fill:#05c2df"/></svg>