<svg width="86" height="69" fill="none" xmlns="http://www.w3.org/2000/svg"><path opacity=".45" d="M51 7c-4.88-3.411-10.086-4.648-16-5-5.913-.352-11.44 1.003-16.679 3.812a32.697 32.697 0 0 0-12.676 12.18A33.408 33.408 0 0 0 1 35.08a33.403 33.403 0 0 0 4.727 17.066A32.69 32.69 0 0 0 18.46 64.263a32.035 32.035 0 0 0 17.066 3.67C41.44 67.554 47.136 65.436 52 62" stroke="#05C2DF" stroke-width="2" stroke-miterlimit="1.517"/><path d="M34.03 61.156c14.588 0 26.413-11.791 26.413-26.336 0-14.544-11.825-26.335-26.412-26.335S7.618 20.276 7.618 34.82c0 14.545 11.825 26.336 26.413 26.336Z" stroke="#05C2DF" stroke-miterlimit="10"/><path opacity=".45" d="M86 12H56v2h30v-2ZM86 56H56v2h30v-2Z" fill="#05C2DF"/><path d="M45 35 27.75 45.392V24.608L45 35Z" fill="#05C2DF"/></svg>