<svg version="1.1" id="Layer_1" xmlns="http://www.w3.org/2000/svg" x="0" y="0" viewBox="0 0 15 11" style="enable-background:new 0 0 15 11" xml:space="preserve"><path d="M5.6 11c-.6 0-1.3 0-2-.1-1.2-.2-2.4-.7-2.7-.9L0 9.5l1-.3c1-.3 1.7-.4 2.4-.8-.7-.3-1.4-.9-1.7-1.7l-.2-.6h.2c-.2-.2-.3-.3-.4-.5C.9 5.1.7 4.5.8 4v-.5l.4.1C1 3.3.9 3 .8 2.7c-.1-.7 0-1.4.4-2l.3-.5.4.4c1.3 1.4 3 2.2 4.9 2.5-.1-.5 0-1 .2-1.4.2-.5.6-.9 1.2-1.2.6-.4 1.4-.5 2.1-.5.8 0 1.5.3 2 .8.3-.1.5-.1.7-.2.2-.1.3-.1.6-.2l.9-.3-.5 1.4h1l-.5.7v.1c0 .1-.1.1-.8 1-.2.2-.3.5-.3.8.1 1.2-.1 2.2-.5 3.1-.4.9-.9 1.6-1.6 2.2-.9.7-2.1 1.2-3.4 1.5-.8 0-1.6.1-2.3.1z" style="fill:#05c2df"/></svg>